<svg xmlns:dc="http://purl.org/dc/elements/1.1/" xmlns:cc="http://creativecommons.org/ns#" xmlns:rdf="http://www.w3.org/1999/02/22-rdf-syntax-ns#" xmlns:svg="http://www.w3.org/2000/svg" xmlns="http://www.w3.org/2000/svg" xmlns:sodipodi="http://sodipodi.sourceforge.net/DTD/sodipodi-0.dtd" xmlns:inkscape="http://www.inkscape.org/namespaces/inkscape" version="1.1" id="Layer_1" x="0px" y="0px" width="775" height="240" viewBox="0 0 775 240" enable-background="new 0 0 792 612" xml:space="preserve" inkscape:version="0.48.0 r9654" sodipodi:docname="SDGLogo-NewTriangle-Aric.svg"><metadata id="metadata3417" fill="#000000"><rdf:RDF fill="#000000"><cc:Work rdf:about="" fill="#000000"><dc:format fill="#000000">image/svg+xml</dc:format><dc:type rdf:resource="http://purl.org/dc/dcmitype/StillImage" fill="#000000"/><dc:title fill="#000000"/></cc:Work></rdf:RDF></metadata><defs id="defs3415" fill="#000000">
	
	

		
		
		
		
	
		
	
			
			
		
			
				
				
				
				
				
				
			
	
	

	
	
	
	
	
	
	

	
		
		
		
	</defs><sodipodi:namedview pagecolor="#ffffff" bordercolor="#666666" borderopacity="1" objecttolerance="10" gridtolerance="10" guidetolerance="10" inkscape:pageopacity="0" inkscape:pageshadow="2" inkscape:window-width="1568" inkscape:window-height="848" id="namedview3413" showgrid="true" showguides="true" inkscape:guide-bbox="true" inkscape:zoom="1" inkscape:cx="274.94609" inkscape:cy="-5.0150819" inkscape:window-x="24" inkscape:window-y="0" inkscape:window-maximized="1" inkscape:current-layer="Layer_1" inkscape:object-nodes="true" fill="#000000"><inkscape:grid type="xygrid" id="grid3525" empspacing="5" visible="true" enabled="true" snapvisiblegridlinesonly="true" fill="#000000"/><sodipodi:guide orientation="1,0" position="-200,700" id="guide3151" fill="#000000"/><sodipodi:guide orientation="0,1" position="-200,803" id="guide3226" fill="#000000"/><sodipodi:guide orientation="1,0" position="-223,801" id="guide3230" fill="#000000"/><sodipodi:guide orientation="1,0" position="-177,801" id="guide3232" fill="#000000"/><sodipodi:guide orientation="1,0" position="-215,803" id="guide3234" fill="#000000"/><sodipodi:guide orientation="1,0" position="-208,803" id="guide3236" fill="#000000"/><sodipodi:guide orientation="1,0" position="-192,803" id="guide3238" fill="#000000"/><sodipodi:guide orientation="1,0" position="-185,803" id="guide3240" fill="#000000"/><sodipodi:guide orientation="0,1" position="-200,722" id="guide3271" fill="#000000"/></sodipodi:namedview>








<g id="g4368" transform="translate(-10.02071,-38.235)"><g transform="translate(313.99023,237.87496)" id="g4326"><path sodipodi:nodetypes="cccccccc" inkscape:transform-center-y="-25.750299" inkscape:transform-center-x="49.48501" inkscape:connector-curvature="0" id="path4328" d="m -200.00048,-87.9992 -2e-5,-102.99999 c -7.99997,1e-5 -14.99997,1e-5 -22.99997,2.00001 l -37.86429,65.85997 -38.10476,65.722303 c 2.26795,7.928203 5.76795,13.990381 9.76844,20.917735 l 89.20058,-51.500006 z" style="fill:#f9c96f;fill-opacity:1;stroke:none"/><path style="fill:#478bca;fill-opacity:1;stroke:none" d="m -199.99947,-87.999146 89.20062,51.499977 c 3.99997,-6.928182 7.49997,-12.99036 9.76792,-20.918563 L -139.13519,-123.13916 -176.99999,-189 c -8,-2 -15,-2 -22.99951,-1.99915 l 2e-5,102.999976 z" id="path4330" inkscape:connector-curvature="0" inkscape:transform-center-x="-49.484775" inkscape:transform-center-y="-25.750294" sodipodi:nodetypes="cccccccc"/><path style="fill:#6b873a;fill-opacity:1;stroke:none" d="m -200.00002,-87.998297 -89.2006,51.500011 c 4,6.928172 7.5,12.99035 13.23205,18.918553 l 75.96855,-0.138547 75.96956,0.138539 c 5.73205,-5.928204 9.23205,-11.990382 13.23107,-18.918585 l -89.2006,-51.499965 z" id="path4332" inkscape:connector-curvature="0" inkscape:transform-center-x="1.5e-05" inkscape:transform-center-y="35.209866" sodipodi:nodetypes="cccccccc"/><path inkscape:transform-center-x="1.5e-05" inkscape:transform-center-y="-5.499995" sodipodi:nodetypes="cccc" inkscape:connector-curvature="0" id="path4334" d="m -180.92079,-76.993042 -19.05257,-33.000008 -19.05257,32.999998 z" style="fill:#ffffff;fill-opacity:1;stroke:#ffffff;stroke-width:0;stroke-linecap:square;stroke-linejoin:miter;stroke-miterlimit:4;stroke-opacity:1;stroke-dasharray:none;stroke-dashoffset:0"/><g inkscape:transform-center-x="0.00637575" transform="translate(-0.06091262,0.03827492)" inkscape:transform-center-y="-23.676147" id="g4336"><path style="fill:#ffffff;fill-opacity:1;stroke:none" d="m -288.27466,-37.039952 c 17.77788,14.754452 76.11251,-18.923965 73.61216,-42.5 -19.01246,-14.041666 -77.63003,19.800106 -73.61216,42.5 z" id="path4338" inkscape:connector-curvature="0" sodipodi:nodetypes="ccc"/><path sodipodi:nodetypes="ccc" inkscape:connector-curvature="0" id="path4340" d="m -111.61623,-37.039072 c 3.8888,-22.773326 -54.44537,-56.452552 -73.61216,-42.5 -2.65421,23.486104 55.96289,57.328705 73.61216,42.5 z" style="fill:#ffffff;fill-opacity:1;stroke:none"/><path sodipodi:nodetypes="ccc" inkscape:connector-curvature="0" id="path4342" d="m -199.93442,-190.03019 c -21.66666,8.01887 -21.66667,75.37734 0,85 21.66667,-9.44444 21.66667,-77.12964 0,-85 z" style="fill:#ffffff;fill-opacity:1;stroke:none"/></g></g><g id="g3077"><path d="m 610.096,166.665 c 1.222,5.731 3.223,9.874 6.454,13.312 3.251,3.466 6.154,5.233 11.547,6.999 3.927,1.306 4.781,1.353 28.165,1.55 l 24.136,0.216 0.291,-1.343 c 0.169,-0.733 1.606,-9.113 3.213,-18.63 1.588,-9.498 3.044,-17.991 3.231,-18.874 l 0.329,-1.579 h -23.478 -23.478 l 0.301,-1.306 c 0.159,-0.705 1.193,-6.736 2.302,-13.397 1.108,-6.652 2.188,-12.946 2.386,-13.97 l 0.376,-1.879 h 41.29 41.3 l -0.301,1.306 c -0.16,0.714 -3.927,22.942 -8.399,49.417 -4.462,26.465 -8.258,48.825 -8.437,49.708 l -0.328,1.578 -42.896,-0.093 c -23.6,-0.057 -43.939,-0.188 -45.218,-0.292 -10.493,-0.864 -18.047,-2.677 -24.454,-5.89 -15.398,-7.723 -25.122,-22.125 -27.855,-41.262 -1.4,-9.808 -0.433,-26.841 2.311,-40.708 5.28,-26.644 14.318,-46.297 27.564,-59.91 13.595,-13.979 29.903,-21.298 52.47,-23.534 3.881,-0.385 21.891,-0.629 46.702,-0.629 36.451,0 40.378,0.094 40.378,0.921 0,0.864 -3.711,23.534 -4.396,26.897 l -0.31,1.579 -39.73,0.009 c -24.925,0 -41.103,0.226 -43.47,0.601 -22.229,3.58 -34.563,20.772 -41.111,57.318 -1.703,9.431 -2.153,25.928 -0.885,31.885 z" id="path3387" inkscape:connector-curvature="0" style="fill:#9ea2a3"/><path d="m 472.378,77.443 -22.068,0.169 -9.339,55.128 c -5.139,30.327 -9.356,55.477 -9.376,55.89 -0.027,0.629 4.566,0.724 25.385,0.545 24.069,-0.207 25.648,-0.291 30.007,-1.494 14.638,-4.049 22.06,-11.292 28.166,-27.499 3.326,-8.812 6.905,-25.403 8.324,-38.462 1.005,-9.376 0.47,-22.961 -1.1,-27.743 -3.062,-9.329 -10.362,-14.412 -23.055,-16.065 -3.044,-0.394 -13.172,-0.573 -26.944,-0.469 z m -51.437,-30.045 44.513,0.207 c 49.482,0.226 49.219,0.197 61.441,4.237 8.719,2.866 13.698,5.881 19.861,11.988 4.556,4.5 5.608,5.938 8.201,11.199 6.651,13.472 8.437,30.74 5.486,53.25 -5.364,40.989 -20.95,67.586 -48.026,81.988 -6.773,3.598 -13.199,5.862 -20.78,7.3 -6.088,1.146 -8.55,1.212 -53.118,1.447 -44.955,0.235 -46.73,0.197 -46.477,-0.808 0.15,-0.573 6.698,-39.232 14.581,-85.924 l 14.318,-84.884 z" id="path3389" inkscape:connector-curvature="0" style="fill:#9ea2a3"/><path d="m 347.192,77.913 c -48.693,0.028 -50.797,0.131 -57.148,3.053 -8.295,3.786 -13.679,12.843 -13.735,23.064 -0.038,6.868 2.64,10.898 8.85,13.312 2.255,0.874 6.313,1.024 35.851,1.362 31.397,0.357 33.643,0.451 38.998,1.635 15.398,3.41 23.008,10.165 25.629,22.745 1.851,8.906 0.141,25.789 -3.786,37.551 -6.257,18.733 -17.268,29.575 -35.569,35.024 -10.597,3.157 -9.686,3.11 -66.815,3.354 l -53.034,0.216 0.329,-1.616 c 0.179,-0.883 1.231,-7.027 2.349,-13.66 1.118,-6.632 2.18,-12.758 2.358,-13.613 l 0.319,-1.56 48.637,-0.188 c 52.742,-0.197 51.455,-0.122 57.815,-3.373 6.783,-3.467 10.823,-11.603 10.823,-21.749 -0.009,-7.083 -2.706,-10.813 -9.385,-12.974 -2.8,-0.902 -6.746,-1.071 -34.46,-1.428 -24.445,-0.319 -32.271,-0.592 -35.747,-1.287 -15.736,-3.1 -24.549,-9.705 -28.391,-21.27 -1.438,-4.322 -1.55,-5.393 -1.541,-13.876 0.019,-9.874 0.977,-16.046 4.021,-25.714 5.947,-18.874 18.198,-31.144 35.973,-36.02 11.349,-3.119 9.526,-3.025 65.463,-3.279 42.559,-0.188 52.113,-0.084 52.122,0.517 0.01,0.422 -1.071,7.281 -2.386,15.248 l -2.405,14.505 -45.135,0.021 z" id="path3391" inkscape:connector-curvature="0" style="fill:#9ea2a3"/></g><path d="m 452.175,273.235 c -4.696,0 -8.479,-0.717 -11.352,-2.156 -3.61,-1.783 -5.414,-4.597 -5.414,-8.439 0,-0.932 0.117,-1.941 0.349,-3.029 l 0.525,-2.562 h 5.642 l -0.548,2.395 c -0.176,0.736 -0.264,1.435 -0.264,2.093 0,4.423 4.046,6.633 12.141,6.633 3.33,0 6.136,-0.464 8.42,-1.397 2.673,-1.049 4.241,-2.62 4.705,-4.715 0.117,-0.544 0.174,-1.008 0.174,-1.398 0,-0.969 -0.338,-1.726 -1.017,-2.271 -0.677,-0.542 -1.79,-1.046 -3.339,-1.513 -1.084,-0.31 -3.679,-0.892 -7.782,-1.745 -4.881,-1.009 -8.154,-1.96 -9.818,-2.854 -2.942,-1.553 -4.414,-3.764 -4.414,-6.637 0,-0.62 0.078,-1.279 0.233,-1.979 1.512,-7.139 7.916,-10.711 19.211,-10.711 10.09,0 15.135,3.514 15.135,10.538 0,1.204 -0.137,2.484 -0.407,3.842 h -5.473 c 0.117,-1.165 0.176,-2.192 0.176,-3.086 0,-2.289 -0.719,-3.86 -2.149,-4.714 -1.703,-1.009 -4.511,-1.513 -8.42,-1.513 -7.511,0 -11.672,1.882 -12.484,5.646 -0.078,0.39 -0.118,0.739 -0.118,1.048 0,1.242 0.662,2.223 1.98,2.939 1.319,0.72 3.747,1.389 7.278,2.009 6.984,1.203 11.583,2.513 13.797,3.929 2.212,1.418 3.317,3.485 3.317,6.202 0,0.775 -0.098,1.571 -0.291,2.385 -0.814,3.842 -3.415,6.754 -7.802,8.732 -3.492,1.55 -7.489,2.328 -11.991,2.328 z" id="path3397" inkscape:connector-curvature="0" style="fill:#9ea2a3"/><path d="m 502.356,254.227 -4.009,18.602 h -5.598 l 4.017,-18.631 -16.009,-20.84 h 7.487 l 12.301,16.014 19.214,-16.014 h 7.366 l -24.769,20.869 z" id="path3399" inkscape:connector-curvature="0" style="fill:#9ea2a3"/><path d="m 539.903,273.235 c -4.697,0 -8.479,-0.717 -11.352,-2.156 -3.61,-1.783 -5.413,-4.597 -5.413,-8.439 0,-0.932 0.116,-1.941 0.348,-3.029 l 0.525,-2.562 h 5.641 l -0.547,2.395 c -0.177,0.736 -0.263,1.435 -0.263,2.093 0,4.423 4.046,6.633 12.139,6.633 3.33,0 6.135,-0.464 8.422,-1.397 2.671,-1.049 4.241,-2.62 4.704,-4.715 0.117,-0.544 0.175,-1.008 0.175,-1.398 0,-0.969 -0.339,-1.726 -1.018,-2.271 -0.677,-0.542 -1.789,-1.046 -3.337,-1.513 -1.087,-0.31 -3.681,-0.892 -7.784,-1.745 -4.881,-1.009 -8.154,-1.96 -9.818,-2.854 -2.943,-1.553 -4.414,-3.764 -4.414,-6.637 0,-0.62 0.077,-1.279 0.233,-1.979 1.513,-7.139 7.917,-10.711 19.211,-10.711 10.09,0 15.134,3.514 15.134,10.538 0,1.204 -0.135,2.484 -0.405,3.842 h -5.473 c 0.116,-1.165 0.175,-2.192 0.175,-3.086 0,-2.289 -0.719,-3.86 -2.15,-4.714 -1.702,-1.009 -4.509,-1.513 -8.417,-1.513 -7.512,0 -11.675,1.882 -12.487,5.646 -0.077,0.39 -0.114,0.739 -0.114,1.048 0,1.242 0.659,2.223 1.978,2.939 1.319,0.72 3.745,1.389 7.277,2.009 6.986,1.203 11.584,2.513 13.797,3.929 2.213,1.418 3.32,3.485 3.32,6.202 0,0.775 -0.1,1.571 -0.294,2.385 -0.813,3.842 -3.414,6.754 -7.801,8.732 -3.492,1.55 -7.492,2.328 -11.992,2.328 z" id="path3401" inkscape:connector-curvature="0" style="fill:#9ea2a3"/><path d="m 591.021,238.423 -7.335,34.406 h -5.596 l 7.335,-34.406 H 570.35 l 1.106,-5.065 h 35.741 l -1.105,5.065 h -15.071 z" id="path3403" inkscape:connector-curvature="0" style="fill:#9ea2a3"/><path d="m 604.871,272.829 8.439,-39.472 h 32.66 l -1.107,5.065 h -27.04 l -2.431,11.352 h 24.001 l -1.108,5.063 h -23.974 l -2.765,12.921 h 27.377 l -1.103,5.07 h -32.949 z" id="path3405" inkscape:connector-curvature="0" style="fill:#9ea2a3"/><path d="m 684.382,272.829 5.952,-27.839 -20.962,27.839 h -4.017 l -9.188,-27.792 -5.94,27.792 h -5.595 l 8.435,-39.472 h 5.495 l 10.43,31.744 23.98,-31.744 h 5.449 l -8.444,39.472 h -5.595 z" id="path3407" inkscape:connector-curvature="0" style="fill:#9ea2a3"/><path d="m 717.336,273.235 c -4.698,0 -8.479,-0.717 -11.35,-2.156 -3.61,-1.783 -5.414,-4.597 -5.414,-8.439 0,-0.932 0.117,-1.941 0.348,-3.029 l 0.528,-2.562 h 5.641 l -0.549,2.395 c -0.18,0.736 -0.264,1.435 -0.264,2.093 0,4.423 4.048,6.633 12.139,6.633 3.333,0 6.135,-0.464 8.423,-1.397 2.673,-1.049 4.24,-2.62 4.703,-4.715 0.117,-0.544 0.175,-1.008 0.175,-1.398 0,-0.969 -0.341,-1.726 -1.017,-2.271 -0.678,-0.542 -1.793,-1.046 -3.34,-1.513 -1.083,-0.31 -3.677,-0.892 -7.782,-1.745 -4.88,-1.009 -8.153,-1.96 -9.817,-2.854 -2.941,-1.553 -4.412,-3.764 -4.412,-6.637 0,-0.62 0.078,-1.279 0.232,-1.979 1.509,-7.139 7.918,-10.711 19.209,-10.711 10.093,0 15.134,3.514 15.134,10.538 0,1.204 -0.135,2.484 -0.406,3.842 h -5.472 c 0.117,-1.165 0.175,-2.192 0.175,-3.086 0,-2.289 -0.715,-3.86 -2.147,-4.714 -1.701,-1.009 -4.513,-1.513 -8.42,-1.513 -7.512,0 -11.672,1.882 -12.485,5.646 -0.076,0.39 -0.115,0.739 -0.115,1.048 0,1.242 0.658,2.223 1.978,2.939 1.32,0.72 3.746,1.389 7.278,2.009 6.981,1.203 11.582,2.513 13.795,3.929 2.211,1.418 3.318,3.485 3.318,6.202 0,0.775 -0.098,1.571 -0.291,2.385 -0.816,3.842 -3.418,6.754 -7.802,8.732 -3.495,1.55 -7.488,2.328 -11.993,2.328 z" id="path3409" inkscape:connector-curvature="0" style="fill:#9ea2a3"/><text y="271.95651" x="747.59857" style="font-size:21.85309982px;fill:#9ea2a3;font-family:Myriad-Roman" id="text3411" font-size="21.8531">TM</text>
</g><g id="g3169" transform="translate(0,-475)"/><g id="g4316" sodipodi:insensitive="true" transform="translate(0,-372)"><path sodipodi:nodetypes="cccccccc" inkscape:transform-center-y="-25.750299" inkscape:transform-center-x="49.48501" inkscape:connector-curvature="0" id="path3228" d="m -200.00048,-87.9992 -2e-5,-102.99999 c -7.99997,1e-5 -14.99997,1e-5 -22.99997,2.00001 l -37.86429,65.85997 -38.10476,65.722303 c 2.26795,7.928203 5.76795,13.990381 9.76844,20.917735 l 89.20058,-51.500006 z" style="fill:#f9c96f;fill-opacity:1;stroke:none"/><path style="fill:#478bca;fill-opacity:1;stroke:none" d="m -199.99947,-87.999146 89.20062,51.499977 c 3.99997,-6.928182 7.49997,-12.99036 9.76792,-20.918563 L -139.13519,-123.13916 -176.99999,-189 c -8,-2 -15,-2 -22.99951,-1.99915 l 2e-5,102.999976 z" id="path3242" inkscape:connector-curvature="0" inkscape:transform-center-x="-49.484775" inkscape:transform-center-y="-25.750294" sodipodi:nodetypes="cccccccc"/><path style="fill:#6b873a;fill-opacity:1;stroke:none" d="m -200.00002,-87.998297 -89.2006,51.500011 c 4,6.928172 7.5,12.99035 13.23205,18.918553 l 75.96855,-0.138547 75.96956,0.138539 c 5.73205,-5.928204 9.23205,-11.990382 13.23107,-18.918585 l -89.2006,-51.499965 z" id="path3246" inkscape:connector-curvature="0" inkscape:transform-center-x="1.5e-05" inkscape:transform-center-y="35.209866" sodipodi:nodetypes="cccccccc"/><path inkscape:transform-center-x="1.5e-05" inkscape:transform-center-y="-5.499995" sodipodi:nodetypes="cccc" inkscape:connector-curvature="0" id="path4269-6" d="m -180.92079,-76.993042 -19.05257,-33.000008 -19.05257,32.999998 z" style="fill:#ffffff;fill-opacity:1;stroke:#ffffff;stroke-width:0;stroke-linecap:square;stroke-linejoin:miter;stroke-miterlimit:4;stroke-opacity:1;stroke-dasharray:none;stroke-dashoffset:0"/><g inkscape:transform-center-x="0.00637575" transform="translate(-0.06091262,0.03827492)" inkscape:transform-center-y="-23.676147" id="g4311"><path style="fill:#ffffff;fill-opacity:1;stroke:none" d="m -288.27466,-37.039952 c 17.77788,14.754452 76.11251,-18.923965 73.61216,-42.5 -19.01246,-14.041666 -77.63003,19.800106 -73.61216,42.5 z" id="path3263" inkscape:connector-curvature="0" sodipodi:nodetypes="ccc"/><path sodipodi:nodetypes="ccc" inkscape:connector-curvature="0" id="path3265" d="m -111.61623,-37.039072 c 3.8888,-22.773326 -54.44537,-56.452552 -73.61216,-42.5 -2.65421,23.486104 55.96289,57.328705 73.61216,42.5 z" style="fill:#ffffff;fill-opacity:1;stroke:none"/><path sodipodi:nodetypes="ccc" inkscape:connector-curvature="0" id="path3267" d="m -199.93442,-190.03019 c -21.66666,8.01887 -21.66667,75.37734 0,85 21.66667,-9.44444 21.66667,-77.12964 0,-85 z" style="fill:#ffffff;fill-opacity:1;stroke:none"/></g></g></svg>